<svg xmlns="http://www.w3.org/2000/svg" width="100" height="40" viewBox="0 0 100 40" fill="none">
    <path fill-rule="evenodd" clip-rule="evenodd" d="M2 2.00244H12.3076V0.00244141H0.999999H0V1.00244V38.9977V39.9977H0.999999H12.3076V37.9977H2V2.00244ZM84.755 17.604C84.1539 17.604 83.6301 17.4854 83.1836 17.248C82.7456 17.0016 82.4064 16.6593 82.166 16.2211C81.9342 15.7739 81.8182 15.249 81.8182 14.6466V10.2925C81.8182 9.69007 81.9342 9.16977 82.166 8.73163C82.4064 8.28436 82.7456 7.94206 83.1836 7.70473C83.6301 7.45828 84.1539 7.33505 84.755 7.33505C85.3647 7.33505 85.8885 7.45828 86.3265 7.70473C86.7644 7.94206 87.0993 8.28436 87.3312 8.73163C87.5716 9.16977 87.6918 9.6855 87.6918 10.2788V14.6466C87.6918 15.249 87.5716 15.7739 87.3312 16.2211C87.0993 16.6593 86.7644 17.0016 86.3265 17.248C85.8885 17.4854 85.3647 17.604 84.755 17.604ZM84.755 16.0979C85.193 16.0979 85.5236 15.9747 85.7468 15.7282C85.9701 15.4726 86.0817 15.1121 86.0817 14.6466V10.2925C86.0817 9.81786 85.9701 9.4573 85.7468 9.21085C85.5236 8.96439 85.193 8.84117 84.755 8.84117C84.3171 8.84117 83.9865 8.96439 83.7632 9.21085C83.54 9.4573 83.4283 9.81786 83.4283 10.2925V14.6466C83.4283 15.1121 83.54 15.4726 83.7632 15.7282C83.9951 15.9747 84.3257 16.0979 84.755 16.0979ZM12.372 17.4671V7.47197H15.5021C16.1289 7.47197 16.6742 7.59976 17.1379 7.85535C17.6102 8.11093 17.9751 8.47148 18.2328 8.93701C18.4904 9.39341 18.6192 9.93196 18.6192 10.5527C18.6192 11.1642 18.4861 11.7028 18.2199 12.1683C17.9623 12.6338 17.6016 12.9944 17.1379 13.25C16.6742 13.5056 16.1289 13.6334 15.5021 13.6334H13.9821V17.4671H12.372ZM13.9821 12.0862H15.5021C15.9486 12.0862 16.3049 11.9492 16.5711 11.6754C16.8459 11.3924 16.9833 11.0182 16.9833 10.5527C16.9833 10.078 16.8459 9.70376 16.5711 9.42992C16.3049 9.15608 15.9486 9.01916 15.5021 9.01916H13.9821V12.0862ZM20.2371 17.4671V7.47197H25.8789V8.96439H21.8215V11.5659H25.4281V13.0446H21.8215V15.9747H25.8789V17.4671H20.2371ZM27.806 7.47197V17.4671H29.416V13.4964H30.5624L32.1983 17.4671H34.0016L32.1339 13.25C32.6663 13.04 33.0871 12.684 33.3962 12.182C33.7139 11.68 33.8728 11.1003 33.8728 10.4431C33.8728 9.84068 33.744 9.32038 33.4864 8.88224C33.2287 8.43497 32.8681 8.08811 32.4044 7.84165C31.9493 7.5952 31.4083 7.47197 30.7814 7.47197H27.806ZM30.7814 11.9903H29.416V8.97809H30.7814C31.2365 8.97809 31.5929 9.11501 31.8505 9.38885C32.1081 9.65356 32.2369 10.0232 32.2369 10.4979C32.2369 10.9634 32.1081 11.3285 31.8505 11.5933C31.5929 11.858 31.2365 11.9903 30.7814 11.9903ZM35.6839 17.4671V7.47197H41.3257V8.96439H37.2682V11.5659H40.8749V13.0446H37.2682V15.9747H41.3257V17.4671H35.6839ZM43.2399 7.47197V17.4671H46.035C46.6704 17.4671 47.22 17.3393 47.6837 17.0837C48.156 16.819 48.521 16.4539 48.7786 15.9884C49.0362 15.5137 49.165 14.9615 49.165 14.3316V10.5937C49.165 9.95478 49.0362 9.40254 48.7786 8.93701C48.521 8.47148 48.156 8.11093 47.6837 7.85535C47.22 7.59976 46.6704 7.47197 46.035 7.47197H43.2399ZM46.035 15.8925H44.85V9.04655H46.035C46.4987 9.04655 46.8679 9.18803 47.1427 9.471C47.4175 9.74484 47.5549 10.1191 47.5549 10.5937V14.3316C47.5549 14.8154 47.4175 15.1988 47.1427 15.4818C46.8679 15.7556 46.4987 15.8925 46.035 15.8925ZM51.1307 17.4671V7.47197H56.7725V8.96439H52.715V11.5659H56.3217V13.0446H52.715V15.9747H56.7725V17.4671H51.1307ZM59.0473 7.47197V17.4671H64.6504V15.8788H60.6574V7.47197H59.0473ZM65.8948 17.4671L68.2649 7.47197H70.3387L72.7216 17.4671H71.0729L70.5577 15.0436H68.0588L67.5436 17.4671H65.8948ZM68.3551 13.647H70.2614L69.6947 10.9634C69.6002 10.5162 69.5186 10.1145 69.4499 9.75853C69.3812 9.39341 69.334 9.1287 69.3082 8.96439C69.2825 9.1287 69.2352 9.39341 69.1665 9.75853C69.1064 10.1145 69.0249 10.5116 68.9218 10.9497L68.3551 13.647ZM74.0948 7.47197V17.4671H75.5632V12.5791C75.5632 12.2505 75.5546 11.8899 75.5375 11.4974C75.5203 11.1049 75.4988 10.7215 75.4731 10.3473C75.4473 9.97304 75.4258 9.65356 75.4087 9.38885L77.9977 17.4671H79.9684V7.47197H78.5V12.2094C78.5 12.5197 78.5086 12.8849 78.5258 13.3047C78.543 13.7155 78.5644 14.1217 78.5902 14.5233C78.6245 14.9158 78.6546 15.2581 78.6804 15.5502L76.0656 7.47197H74.0948ZM13.7116 30.94C14.1667 31.1773 14.6949 31.296 15.296 31.296C15.9056 31.296 16.4295 31.1773 16.8674 30.94C17.3139 30.6935 17.6617 30.3467 17.9107 29.8994C18.1598 29.4521 18.2843 28.9318 18.2843 28.3385H16.6613C16.6613 28.8041 16.5411 29.1646 16.3007 29.4202C16.0688 29.6666 15.7339 29.7899 15.296 29.7899C14.858 29.7899 14.5188 29.6666 14.2784 29.4202C14.0379 29.1646 13.9177 28.8041 13.9177 28.3385V23.9708C13.9177 23.5053 14.0379 23.1493 14.2784 22.9028C14.5188 22.6564 14.858 22.5331 15.296 22.5331C15.7339 22.5331 16.0688 22.6564 16.3007 22.9028C16.5411 23.1493 16.6613 23.5098 16.6613 23.9845H18.2843C18.2843 23.3729 18.1598 22.848 17.9107 22.4099C17.6617 21.9718 17.3139 21.634 16.8674 21.3967C16.4295 21.1502 15.9056 21.027 15.296 21.027C14.6949 21.027 14.1667 21.1502 13.7116 21.3967C13.2651 21.634 12.9173 21.9718 12.6683 22.4099C12.4279 22.848 12.3076 23.3729 12.3076 23.9845V28.3385C12.3076 28.941 12.4279 29.4658 12.6683 29.9131C12.9173 30.3512 13.2651 30.6935 13.7116 30.94ZM22.9678 31.296C22.3667 31.296 21.8429 31.1773 21.3964 30.94C20.9584 30.6935 20.6193 30.3512 20.3788 29.9131C20.147 29.4658 20.031 28.941 20.031 28.3385V23.9845C20.031 23.382 20.147 22.8617 20.3788 22.4236C20.6193 21.9763 20.9584 21.634 21.3964 21.3967C21.8429 21.1502 22.3667 21.027 22.9678 21.027C23.5775 21.027 24.1013 21.1502 24.5393 21.3967C24.9772 21.634 25.3121 21.9763 25.544 22.4236C25.7844 22.8617 25.9046 23.3775 25.9046 23.9708V28.3385C25.9046 28.941 25.7844 29.4658 25.544 29.9131C25.3121 30.3512 24.9772 30.6935 24.5393 30.94C24.1013 31.1773 23.5775 31.296 22.9678 31.296ZM22.9678 29.7899C23.4058 29.7899 23.7364 29.6666 23.9597 29.4202C24.1829 29.1646 24.2946 28.8041 24.2946 28.3385V23.9845C24.2946 23.5098 24.1829 23.1493 23.9597 22.9028C23.7364 22.6564 23.4058 22.5331 22.9678 22.5331C22.5299 22.5331 22.1993 22.6564 21.976 22.9028C21.7528 23.1493 21.6411 23.5098 21.6411 23.9845V28.3385C21.6411 28.8041 21.7528 29.1646 21.976 29.4202C22.2079 29.6666 22.5385 29.7899 22.9678 29.7899ZM27.7544 21.1639V31.1591H29.2228V26.271C29.2228 25.9424 29.2142 25.5819 29.1971 25.1894C29.1799 24.7969 29.1584 24.4135 29.1327 24.0392C29.1069 23.665 29.0854 23.3455 29.0683 23.0808L31.6573 31.1591H33.628V21.1639H32.1596V25.9014C32.1596 26.2117 32.1682 26.5768 32.1854 26.9967C32.2026 27.4075 32.224 27.8137 32.2498 28.2153C32.2842 28.6078 32.3142 28.9501 32.34 29.2422L29.7252 21.1639H27.7544ZM35.5809 31.1591V21.1639H41.4287V22.7522H37.1652V25.4221H41.0938V27.0104H37.191V31.1591H35.5809ZM47.5549 19.7947L43.0467 32.6652H44.7212L49.2294 19.7947H47.5549ZM54.9978 31.296C54.6285 31.296 54.3365 31.1819 54.1219 30.9537C53.8986 30.7255 53.787 30.4151 53.787 30.0226C53.787 29.6301 53.8986 29.3198 54.1219 29.0916C54.3365 28.8543 54.6285 28.7356 54.9978 28.7356C55.367 28.7356 55.6633 28.8543 55.8865 29.0916C56.1012 29.3198 56.2085 29.6301 56.2085 30.0226C56.2085 30.4151 56.1012 30.7255 55.8865 30.9537C55.6633 31.1819 55.367 31.296 54.9978 31.296ZM61.5798 31.296C61.2106 31.296 60.9186 31.1819 60.7039 30.9537C60.4807 30.7255 60.369 30.4151 60.369 30.0226C60.369 29.6301 60.4807 29.3198 60.7039 29.0916C60.9186 28.8543 61.2106 28.7356 61.5798 28.7356C61.9491 28.7356 62.2453 28.8543 62.4686 29.0916C62.6833 29.3198 62.7906 29.6301 62.7906 30.0226C62.7906 30.4151 62.6833 30.7255 62.4686 30.9537C62.2453 31.1819 61.9491 31.296 61.5798 31.296ZM68.1747 31.296C67.8055 31.296 67.5092 31.1819 67.286 30.9537C67.0713 30.7255 66.9639 30.4151 66.9639 30.0226C66.9639 29.6301 67.0713 29.3198 67.286 29.0916C67.5092 28.8543 67.8055 28.7356 68.1747 28.7356C68.544 28.7356 68.8359 28.8543 69.0506 29.0916C69.2739 29.3198 69.3855 29.6301 69.3855 30.0226C69.3855 30.4151 69.2739 30.7255 69.0506 30.9537C68.8359 31.1819 68.544 31.296 68.1747 31.296ZM87.6919 2.00244H97.9995V37.9977H87.6919V39.9977H98.9995H99.9995V38.9977V1.00244V0.00244141H98.9995H87.6919V2.00244Z" fill="#8B96FF"/>
</svg>